<?xml version="1.0" standalone="no"?>
<!DOCTYPE svg PUBLIC "-//W3C//DTD SVG 20010904//EN"
 "http://www.w3.org/TR/2001/REC-SVG-20010904/DTD/svg10.dtd">
<svg className="w-10 h-2 sm:h-4 sm:w-20" version="1.0" xmlns="http://www.w3.org/2000/svg"
 width="728.000000pt" height="724.000000pt" viewBox="0 0 728.000000 724.000000"
 preserveAspectRatio="xMidYMid meet">

<g transform="translate(0.000000,724.000000) scale(0.100000,-0.100000)"
fill="currentColor" stroke="none">
<path d="M3575 6543 c-450 -514 -725 -1313 -725 -2109 0 -159 15 -372 26 -383
3 -3 355 -6 782 -6 l777 -1 12 81 c6 44 12 195 12 336 1 220 -2 280 -23 430
-75 532 -242 994 -504 1399 -60 93 -189 256 -245 308 l-35 34 -77 -89z"/>
<path d="M577 5413 c-4 -3 -7 -70 -7 -147 0 -213 40 -434 131 -716 46 -144
137 -371 186 -465 l21 -40 910 0 911 0 -22 35 c-112 185 -419 517 -642 695
-96 77 -287 208 -370 255 -128 72 -228 124 -309 161 -50 22 -100 45 -111 50
-145 65 -448 148 -600 164 -33 4 -67 9 -76 11 -8 2 -18 1 -22 -3z"/>
<path d="M6628 5405 c-365 -50 -833 -247 -1214 -511 -223 -154 -432 -348 -626
-579 -75 -90 -188 -247 -188 -262 0 -4 407 -8 905 -8 l906 0 45 100 c201 441
292 795 290 1124 -1 87 -5 145 -11 147 -5 1 -54 -4 -107 -11z"/>
<path d="M1050 3773 c11 -21 47 -74 78 -118 l57 -80 2465 -3 2464 -2 24 22
c25 23 142 196 142 210 0 4 -1182 8 -2626 8 l-2625 0 21 -37z"/>
<path d="M1400 3312 c0 -9 139 -146 188 -185 l34 -27 2022 0 2022 0 49 31 c51
32 195 166 195 181 0 4 -1015 8 -2255 8 -1240 0 -2255 -3 -2255 -8z"/>
<path d="M2061 2792 c57 -38 120 -77 139 -88 19 -10 42 -24 50 -31 24 -18 227
-117 320 -156 183 -75 401 -136 545 -152 33 -3 71 -8 84 -11 l24 -5 -7 223
c-3 123 -9 238 -12 256 l-6 32 -621 0 -620 0 104 -68z"/>
<path d="M3310 2791 c98 -173 205 -325 292 -416 l57 -60 33 40 c18 22 40 47
48 55 9 9 29 34 45 55 17 22 32 42 35 45 23 22 138 203 197 307 l24 43 -385 0
-385 0 39 -69z"/>
<path d="M4116 2833 c-13 -66 -26 -198 -32 -336 l-7 -148 44 6 c108 14 240 39
309 57 209 54 469 162 631 261 20 12 63 38 95 57 48 28 166 109 183 126 2 2
-271 4 -607 4 l-610 0 -6 -27z"/>
<path d="M2610 1805 c0 -233 1 -231 -55 -197 -68 42 -135 56 -265 55 -112 0
-132 -3 -189 -26 -245 -101 -383 -324 -351 -569 12 -100 34 -159 85 -237 49
-75 78 -103 153 -154 99 -67 238 -104 352 -93 68 7 199 47 234 71 30 21 36 19
36 -14 l0 -30 130 -3 130 -3 0 708 0 707 -130 0 -130 0 0 -215z m-185 -399
c111 -52 180 -159 180 -281 0 -83 -27 -144 -90 -208 -87 -87 -223 -114 -335
-66 -72 31 -155 123 -176 196 -19 64 -10 152 21 218 23 47 117 131 169 149 67
23 172 20 231 -8z"/>
<path d="M3000 1890 l0 -130 130 0 130 0 0 130 0 130 -130 0 -130 0 0 -130z"/>
<path d="M4230 1805 c0 -118 -4 -215 -8 -215 -5 0 -30 11 -58 24 -218 104
-501 53 -651 -118 -96 -110 -137 -219 -137 -371 0 -160 44 -266 157 -379 86
-85 168 -130 282 -153 68 -14 93 -14 170 -4 49 7 116 23 150 37 94 40 95 40
95 10 l0 -27 128 3 127 3 0 703 0 702 -127 0 -128 0 0 -215z m-173 -406 c187
-89 229 -333 82 -479 -152 -151 -388 -113 -485 77 -24 49 -29 70 -29 133 0 90
24 148 90 214 98 97 214 116 342 55z"/>
<path d="M980 1664 c-248 -46 -451 -287 -450 -534 0 -82 35 -206 79 -280 44
-73 123 -153 191 -192 160 -93 373 -98 541 -13 50 26 59 24 59 -12 0 -23 1
-23 125 -23 l125 0 0 525 0 525 -125 0 -125 0 0 -35 c0 -38 -13 -44 -45 -21
-51 34 -136 56 -242 60 -60 3 -119 3 -133 0z m235 -263 c116 -56 179 -153 179
-276 0 -110 -55 -200 -161 -262 -37 -22 -62 -28 -129 -31 -72 -4 -89 -1 -138
21 -63 29 -126 91 -156 152 -68 140 -5 318 139 392 54 28 73 33 134 33 59 0
83 -5 132 -29z"/>
<path d="M5030 1662 c-132 -18 -281 -112 -361 -229 -185 -269 -82 -647 216
-792 157 -77 332 -76 489 0 32 16 60 29 62 29 2 0 4 -13 4 -29 l0 -30 126 -3
c69 -2 128 -1 130 1 2 2 4 240 4 528 l0 523 -130 0 -130 0 0 -35 c0 -19 -4
-35 -8 -35 -5 0 -32 11 -61 25 -97 47 -216 63 -341 47z m227 -254 c128 -59
202 -211 168 -343 -20 -74 -36 -104 -82 -149 -148 -146 -380 -107 -477 80
-128 247 140 528 391 412z"/>
<path d="M6145 1663 c-119 -17 -241 -97 -287 -188 -26 -48 -35 -171 -19 -231
36 -132 139 -193 396 -234 195 -32 225 -47 225 -112 0 -54 -15 -76 -63 -99
-58 -26 -177 -26 -234 1 -44 19 -78 62 -88 112 l-7 28 -135 0 -135 0 6 -32
c18 -93 40 -139 90 -191 92 -93 204 -131 386 -131 270 1 429 101 458 290 19
116 -3 190 -75 255 -81 73 -135 93 -328 124 -180 28 -245 60 -245 120 0 68 52
94 184 95 51 0 78 -5 105 -21 36 -20 61 -62 61 -102 0 -15 15 -17 128 -17 71
0 131 2 134 6 9 8 -19 90 -49 146 -34 62 -89 108 -179 149 -63 29 -79 32 -184
34 -63 1 -128 0 -145 -2z"/>
<path d="M3000 1135 l0 -525 130 0 130 0 -2 523 -3 522 -127 3 -128 3 0 -526z"/>
</g>
</svg>
