<?xml version="1.0" standalone="no"?>
<!DOCTYPE svg PUBLIC "-//W3C//DTD SVG 20010904//EN"
 "http://www.w3.org/TR/2001/REC-SVG-20010904/DTD/svg10.dtd">
<svg className="w-10 h-2 sm:h-4 sm:w-20" version="1.0" xmlns="http://www.w3.org/2000/svg"
 width="400.000000pt" height="400.000000pt" viewBox="0 0 400.000000 400.000000"
 preserveAspectRatio="xMidYMid meet">

<g transform="translate(0.000000,400.000000) scale(0.100000,-0.100000)"
fill="currentColor" stroke="none">
<path d="M1739 2935 c-412 -67 -756 -267 -922 -537 l-42 -68 -71 0 c-60 0 -77
-4 -110 -26 -48 -33 -39 -21 -190 -262 -138 -222 -149 -254 -115 -309 29 -46
68 -53 287 -53 l192 0 48 -77 c125 -202 367 -378 649 -472 190 -63 276 -75
540 -76 269 0 334 9 530 72 300 97 553 281 676 493 l33 58 57 4 c41 3 71 13
105 34 41 25 63 56 180 243 74 118 137 229 140 247 8 41 -18 97 -52 113 -16 7
-97 11 -228 11 l-203 0 -52 81 c-159 244 -462 430 -833 511 -123 26 -488 34
-619 13z m570 -46 c200 -34 403 -112 560 -216 109 -72 254 -217 305 -306 l39
-67 201 -1 c110 -1 212 -4 226 -8 37 -10 58 -53 44 -90 -17 -44 -249 -413
-276 -438 -33 -31 -71 -43 -133 -43 -54 0 -55 0 -76 -42 -34 -68 -115 -172
-180 -232 -415 -384 -1148 -475 -1706 -211 -50 23 -123 63 -162 89 -129 83
-285 249 -337 359 l-18 37 -218 0 -219 0 -24 25 c-14 13 -25 35 -25 48 0 28
248 432 285 464 32 28 85 43 155 43 l55 1 35 62 c46 81 214 251 308 312 324
208 743 285 1161 214z"/>
<path d="M1800 2863 c-155 -20 -371 -83 -494 -145 -169 -84 -322 -213 -409
-344 -26 -40 -47 -74 -47 -78 0 -3 146 -6 325 -6 l325 0 0 44 c0 49 1 50 80
61 25 4 53 9 63 11 15 5 17 -2 17 -55 l0 -61 470 0 c259 0 470 3 470 8 0 12
-60 49 -132 82 -114 51 -247 81 -393 87 -144 6 -231 -3 -459 -47 -83 -16 -151
-29 -152 -27 -8 9 -51 167 -46 171 3 3 19 6 36 6 17 0 104 18 194 40 255 61
350 73 536 67 191 -6 257 -21 421 -101 130 -64 208 -120 298 -216 l67 -70 95
0 c63 0 95 4 95 11 0 25 -92 148 -157 210 -170 163 -385 271 -658 329 -80 17
-141 22 -305 25 -113 2 -221 1 -240 -2z m-438 -312 c11 -10 52 -160 46 -167
-4 -3 -42 -8 -85 -11 l-79 -6 -27 90 c-15 50 -27 95 -27 101 0 11 159 5 172
-7z"/>
<path d="M2083 2618 c2 -8 20 -13 42 -13 22 0 40 5 43 13 2 8 -10 12 -43 12
-33 0 -45 -4 -42 -12z"/>
<path d="M2260 2615 c0 -20 23 -35 56 -35 31 0 53 15 40 27 -13 13 -96 20 -96
8z"/>
<path d="M2425 2579 c-17 -27 83 -75 107 -51 15 15 10 19 -50 42 -33 13 -53
16 -57 9z"/>
<path d="M2600 2497 c0 -28 80 -83 106 -73 24 9 16 23 -34 55 -53 34 -72 38
-72 18z"/>
<path d="M628 2227 c-27 -21 -260 -387 -273 -426 -4 -14 0 -23 14 -30 14 -8
461 -10 1495 -9 l1475 3 28 21 c37 27 287 429 279 449 -5 13 -184 15 -1498 15
l-1493 0 -27 -23z m916 -37 c53 -20 20 -60 -49 -60 -43 0 -75 15 -75 36 0 29
74 43 124 24z m1040 0 c31 -11 34 -35 7 -50 -29 -15 -94 -12 -117 5 -19 15
-19 15 5 35 25 22 65 26 105 10z m-439 -75 c-25 -42 -45 -77 -45 -80 0 -2 38
14 85 36 60 27 99 39 131 39 l46 0 -21 -32 c-11 -19 -30 -34 -43 -36 -18 -2
-110 -37 -127 -49 -2 -1 4 -14 13 -28 11 -17 25 -25 46 -25 34 0 37 -10 13
-51 -16 -27 -22 -29 -75 -29 -57 0 -57 0 -89 47 l-32 46 -24 -46 -23 -47 -80
0 -80 0 23 38 c15 23 33 38 48 40 18 2 37 24 77 90 46 77 50 87 33 90 -19 3
-19 4 1 38 20 34 20 34 93 34 l74 0 -44 -75z m-939 49 c45 -21 64 -50 64 -94
-1 -79 -76 -174 -159 -198 -24 -8 -117 -12 -246 -12 l-207 0 19 33 c15 25 26
33 56 35 34 3 40 9 87 86 27 46 50 87 50 90 0 3 -13 6 -30 6 l-29 0 20 35 21
35 160 0 c127 0 167 -3 194 -16z m1653 -55 c35 -12 51 -35 51 -74 0 -58 -12
-65 -116 -65 l-95 0 3 -27 c4 -34 26 -40 72 -18 19 9 49 15 67 13 l32 -3 -27
-32 c-77 -91 -251 -60 -251 46 0 108 151 199 264 160z m-1319 -6 c0 -5 -23
-45 -50 -91 -28 -46 -50 -85 -50 -88 0 -2 7 -4 15 -4 19 0 19 -10 -1 -38 -14
-20 -23 -22 -110 -22 -52 0 -94 3 -94 6 0 17 44 64 60 64 11 0 30 19 49 50 23
37 27 50 16 50 -21 0 -19 17 6 51 19 27 25 29 90 29 38 0 69 -3 69 -7z m360 1
c0 -2 -12 -26 -27 -54 -31 -55 -57 -64 -88 -30 -26 29 -52 25 -91 -14 -36 -36
-44 -75 -20 -95 17 -14 60 -5 77 15 14 17 69 19 69 2 -1 -43 -77 -88 -147 -88
-117 0 -161 100 -87 197 43 56 92 73 212 71 56 0 102 -3 102 -4z m680 -3 c0
-6 -23 -47 -50 -93 -38 -63 -46 -84 -35 -86 18 -4 18 -4 3 -37 -11 -24 -14
-25 -110 -25 -54 0 -98 3 -98 6 0 17 44 64 61 64 25 0 86 93 64 98 -19 4 -19
11 5 50 19 31 21 32 90 32 38 0 70 -4 70 -9z m740 0 c0 -3 -11 -23 -25 -44
-21 -30 -32 -37 -59 -37 -22 0 -36 6 -40 16 -4 10 -15 14 -33 12 -40 -5 -40
-26 1 -34 41 -7 86 -39 86 -59 0 -24 -49 -72 -89 -88 -26 -11 -71 -16 -145
-15 -58 0 -106 2 -106 5 0 3 10 23 22 44 20 36 25 39 65 39 32 0 43 -4 43 -16
0 -11 9 -14 37 -12 56 5 50 23 -14 44 -67 22 -77 43 -42 88 38 48 90 65 201
64 54 0 98 -3 98 -7z"/>
<path d="M962 2023 l-52 -88 50 -3 c63 -4 113 19 146 67 46 69 26 111 -53 111
-38 0 -39 -2 -91 -87z"/>
<path d="M2753 2048 c-12 -6 -24 -17 -27 -25 -5 -11 4 -13 42 -11 39 3 47 6
47 23 0 23 -29 30 -62 13z"/>
<path d="M864 1678 c165 -280 493 -474 898 -534 154 -22 440 -15 583 16 346
74 637 251 781 476 57 88 59 84 -51 84 l-97 0 -66 -71 c-90 -98 -177 -161
-307 -225 -156 -76 -236 -95 -426 -101 -180 -6 -267 5 -528 67 -92 22 -181 40
-198 40 -16 0 -32 3 -35 6 -5 4 38 162 46 171 1 2 70 -11 152 -27 215 -42 330
-54 469 -47 196 10 410 77 510 161 l30 25 -482 1 -483 0 0 -66 c0 -57 -2 -65
-17 -60 -10 2 -38 7 -63 11 -80 11 -80 11 -80 66 l0 49 -331 0 -330 0 25 -42z
m509 -54 c44 -8 44 -12 14 -109 l-23 -70 -84 -6 c-47 -4 -87 -5 -89 -3 -2 2 8
47 24 99 l28 95 46 0 c25 0 63 -3 84 -6z"/>
<path d="M2665 1568 c-51 -28 -85 -78 -53 -78 20 0 109 62 105 74 -5 16 -28
18 -52 4z"/>
<path d="M2464 1466 c-36 -16 -50 -34 -38 -46 12 -11 116 29 111 43 -5 17 -38
19 -73 3z"/>
<path d="M2273 1413 c-7 -2 -13 -13 -13 -23 0 -15 5 -16 47 -9 52 10 58 13 48
28 -6 11 -59 14 -82 4z"/>
<path d="M2087 1394 c-16 -17 -4 -24 39 -24 32 0 44 4 42 13 -5 13 -69 22 -81
11z"/>
<path d="M3259 1623 c-13 -16 -12 -17 4 -4 16 13 21 21 13 21 -2 0 -10 -8 -17
-17z"/>
<path d="M3330 1636 c0 -2 8 -10 18 -17 15 -13 16 -12 3 4 -13 16 -21 21 -21
13z"/>
<path d="M3282 1590 c0 -19 2 -29 5 -22 2 6 11 12 18 12 7 0 16 -6 18 -12 3
-7 6 -3 6 9 1 16 -4 20 -18 16 -13 -3 -21 1 -24 14 -3 10 -5 2 -5 -17z"/>
<path d="M3250 1561 c0 -6 4 -13 10 -16 6 -3 7 1 4 9 -7 18 -14 21 -14 7z"/>
</g>
</svg>
