<?xml version="1.0" standalone="no"?>
<!DOCTYPE svg PUBLIC "-//W3C//DTD SVG 20010904//EN"
 "http://www.w3.org/TR/2001/REC-SVG-20010904/DTD/svg10.dtd">
<svg className="w-10 h-2 sm:h-4 sm:w-20" version="1.0" xmlns="http://www.w3.org/2000/svg"
 width="1920.000000pt" height="1920.000000pt" viewBox="0 0 1920.000000 1920.000000"
 preserveAspectRatio="xMidYMid meet">

<g transform="translate(0.000000,1920.000000) scale(0.100000,-0.100000)"
fill="currentColor" stroke="none">
<path d="M5670 13308 c-29 -79 -82 -219 -117 -313 -36 -93 -100 -264 -143
-380 -105 -284 -515 -1375 -602 -1605 -38 -102 -94 -250 -123 -330 -30 -80
-146 -389 -258 -688 l-204 -542 474 2 475 3 224 600 c123 330 265 710 316 845
50 135 97 256 105 270 12 23 13 20 8 -35 -3 -33 -12 -163 -20 -290 -8 -126
-19 -297 -25 -380 -6 -82 -21 -323 -35 -535 -14 -212 -27 -406 -30 -432 l-6
-48 514 0 513 0 76 208 c65 175 325 869 575 1532 36 96 105 281 153 410 161
431 541 1442 616 1640 41 108 74 199 74 203 0 4 -213 6 -472 5 l-473 -3 -272
-725 c-150 -399 -298 -794 -330 -877 -31 -84 -60 -153 -63 -153 -3 0 -5 15 -3
33 3 35 51 758 83 1267 11 173 22 348 26 388 l6 72 -505 0 -505 0 -52 -142z"/>
<path d="M8350 13430 c-6 -11 -33 -82 -61 -157 -28 -76 -88 -237 -134 -358
-46 -121 -206 -546 -355 -945 -149 -399 -311 -831 -360 -960 -184 -486 -580
-1548 -580 -1554 0 -3 212 -5 472 -4 l472 3 748 1995 c411 1097 748 1996 748
1997 0 2 -211 3 -470 3 -459 0 -470 0 -480 -20z"/>
<path d="M9456 13442 c-2 -4 -52 -136 -111 -292 -58 -157 -150 -404 -205 -550
-54 -146 -171 -461 -260 -700 -89 -239 -197 -529 -240 -645 -43 -115 -144
-385 -223 -600 -211 -568 -434 -1167 -442 -1187 -7 -17 20 -18 467 -18 l474 0
101 268 c56 147 156 411 223 587 67 176 160 421 207 545 47 124 89 232 94 240
5 10 9 -8 9 -50 0 -36 9 -382 20 -770 11 -388 20 -731 20 -762 l0 -58 663 -1
c414 0 655 -4 642 -10 -11 -5 -195 -56 -410 -115 -214 -58 -570 -154 -790
-214 -220 -60 -627 -170 -905 -245 -278 -75 -685 -185 -905 -245 -220 -60
-618 -168 -885 -240 -267 -72 -640 -173 -830 -225 -496 -135 -579 -149 -870
-149 -228 -1 -333 11 -512 56 -277 69 -502 193 -687 377 -361 361 -466 905
-301 1561 51 201 172 535 250 690 40 80 53 113 40 105 -5 -3 -79 -90 -163
-193 -1003 -1225 -1587 -2306 -1687 -3125 -14 -113 -14 -360 0 -457 14 -101
53 -245 90 -333 157 -378 627 -731 1154 -867 185 -47 326 -63 556 -63 469 0
922 105 1625 375 351 135 988 404 2575 1088 322 139 677 292 790 340 113 48
342 147 510 220 528 229 1039 450 1215 525 94 40 328 141 520 225 338 147 624
270 1075 465 118 51 373 161 565 245 193 84 447 194 565 245 118 51 388 168
600 260 212 92 466 202 565 245 99 43 302 131 450 195 149 64 403 175 565 245
162 70 453 196 645 280 193 84 409 177 480 208 156 67 187 86 183 116 -7 46
-20 43 -1148 -264 -179 -49 -518 -141 -755 -205 -661 -179 -1330 -360 -1883
-510 -276 -75 -506 -135 -511 -133 -5 2 15 68 44 148 l53 145 -549 3 c-302 1
-549 5 -549 8 0 5 241 654 320 859 l38 100 454 3 455 2 62 163 c33 89 96 257
140 372 l78 210 -453 5 -452 5 149 405 c82 223 152 411 154 418 3 9 109 12
484 12 l479 0 10 28 c6 15 62 163 126 330 64 167 116 305 116 307 0 3 -648 5
-1440 5 l-1440 0 -223 -268 c-264 -320 -503 -609 -647 -784 -57 -70 -106 -125
-108 -123 -2 2 50 144 116 317 287 749 322 842 322 850 0 10 -947 11 -954 0z
m1935 -1428 c-274 -731 -578 -1544 -676 -1806 -99 -263 -180 -476 -181 -475
-2 1 -17 465 -34 1030 -30 994 -31 1028 -13 1051 10 13 313 347 673 742 360
394 670 735 689 756 18 22 35 37 37 35 2 -2 -221 -601 -495 -1333z"/>
</g>
</svg>
