<?xml version="1.0" standalone="no"?>
<!DOCTYPE svg PUBLIC "-//W3C//DTD SVG 20010904//EN"
 "http://www.w3.org/TR/2001/REC-SVG-20010904/DTD/svg10.dtd">
<svg className="w-10 h-2 sm:h-4 sm:w-20" version="1.0" xmlns="http://www.w3.org/2000/svg"
 width="620.000000pt" height="349.000000pt" viewBox="0 0 620.000000 349.000000"
 preserveAspectRatio="xMidYMid meet">

<g transform="translate(0.000000,349.000000) scale(0.100000,-0.100000)"
fill="currentColor" stroke="none">
<path d="M440 2699 c0 -5 33 -115 74 -242 41 -128 125 -389 186 -582 61 -192
131 -411 155 -485 24 -74 76 -235 115 -358 l71 -222 252 0 252 0 275 753 275
752 1754 5 1753 5 64 180 c35 99 64 183 64 188 0 4 -894 6 -1987 5 l-1988 -3
-45 -130 c-25 -71 -126 -366 -224 -655 -99 -289 -182 -528 -185 -532 -4 -4
-85 259 -180 585 -96 326 -185 627 -198 670 l-24 77 -229 0 c-156 0 -230 -3
-230 -11z"/>
<path d="M4965 2234 c-163 -36 -284 -124 -347 -251 -32 -65 -33 -72 -33 -188
0 -114 1 -123 30 -174 60 -109 151 -160 438 -245 201 -60 260 -85 277 -115 27
-51 0 -119 -57 -147 -55 -27 -183 -26 -238 2 -46 23 -85 88 -85 141 l0 33
-215 0 -215 0 0 -22 c1 -49 31 -165 57 -215 55 -109 180 -199 340 -245 110
-32 340 -32 458 0 170 46 292 135 348 253 55 118 56 272 2 378 -33 66 -113
137 -199 176 -40 19 -151 55 -245 80 -191 50 -247 71 -279 106 -69 73 36 156
171 135 67 -11 115 -48 129 -101 l12 -45 198 0 c226 0 207 -11 183 103 -35
168 -150 281 -340 333 -86 23 -300 28 -390 8z"/>
<path d="M2137 2093 c-25 -71 -138 -384 -251 -696 -113 -313 -206 -573 -206
-578 0 -6 83 -8 212 -7 l211 3 8 25 c4 14 18 58 30 98 l21 72 221 -2 220 -3 8
-25 c4 -14 17 -58 29 -97 l21 -73 220 0 c207 0 221 1 214 18 -3 9 -33 91 -65
182 -32 91 -142 399 -244 684 -102 286 -186 521 -186 523 0 1 -94 3 -209 3
l-209 0 -45 -127z m318 -561 c31 -112 55 -206 52 -209 -6 -5 -239 -5 -244 1
-2 2 108 368 122 405 3 8 7 12 9 10 2 -2 29 -95 61 -207z"/>
<path d="M3170 1515 l0 -705 200 0 200 0 2 385 3 385 213 -385 213 -385 205 0
204 0 0 705 0 705 -200 0 -200 0 -2 -374 -3 -375 -200 375 -200 374 -217 0
-218 0 0 -705z"/>
</g>
</svg>
