<svg width="19" height="18" viewBox="0 0 19 18" fill="none" xmlns="http://www.w3.org/2000/svg">
<path d="M9.5 18C8.26133 18 7.09467 17.7633 6 17.29C4.90533 16.8167 3.952 16.1733 3.14 15.36C2.32667 14.5487 1.68333 13.5953 1.21 12.5C0.736667 11.4053 0.5 10.2387 0.5 9C0.5 7.758 0.736667 6.59033 1.21 5.497C1.684 4.40367 2.32733 3.451 3.14 2.639C3.95133 1.827 4.90467 1.18433 6 0.711C7.09467 0.237 8.26133 0 9.5 0C10.742 0 11.9097 0.236667 13.003 0.71C14.0963 1.184 15.049 1.82733 15.861 2.64C16.673 3.452 17.3157 4.40433 17.789 5.497C18.263 6.59033 18.5 7.758 18.5 9C18.5 10.2387 18.2633 11.4053 17.79 12.5C17.3167 13.5947 16.6733 14.548 15.86 15.36C15.048 16.1727 14.0957 16.816 13.003 17.29C11.9097 17.7633 10.742 18 9.5 18ZM9.5 17.008C10.0867 16.254 10.5707 15.5137 10.952 14.787C11.3327 14.0603 11.6423 13.247 11.881 12.347H7.119C7.383 13.2977 7.699 14.1363 8.067 14.863C8.435 15.5897 8.91267 16.3047 9.5 17.008ZM8.227 16.858C7.76033 16.308 7.33433 15.628 6.949 14.818C6.56367 14.0087 6.277 13.1847 6.089 12.346H2.253C2.82633 13.59 3.63867 14.61 4.69 15.406C5.742 16.202 6.92067 16.686 8.226 16.858M10.772 16.858C12.0773 16.686 13.256 16.202 14.308 15.406C15.36 14.61 16.1723 13.59 16.745 12.346H12.911C12.6577 13.1973 12.3387 14.028 11.954 14.838C11.5687 15.6473 11.1747 16.3207 10.772 16.858ZM1.845 11.346H5.88C5.804 10.936 5.75067 10.5363 5.72 10.147C5.688 9.75767 5.672 9.37533 5.672 9C5.672 8.62467 5.68767 8.24233 5.719 7.853C5.75033 7.46367 5.80367 7.06367 5.879 6.653H1.847C1.73833 6.99967 1.65333 7.37733 1.592 7.786C1.53067 8.19467 1.5 8.59933 1.5 9C1.5 9.40133 1.53033 9.806 1.591 10.214C1.65233 10.6227 1.73733 11 1.846 11.346M6.881 11.346H12.119C12.195 10.936 12.2483 10.5427 12.279 10.166C12.311 9.79 12.327 9.40133 12.327 9C12.327 8.59867 12.3113 8.21 12.28 7.834C12.2487 7.45733 12.1953 7.064 12.12 6.654H6.88C6.80467 7.064 6.75133 7.45733 6.72 7.834C6.68867 8.21 6.673 8.59867 6.673 9C6.673 9.40133 6.68867 9.79 6.72 10.166C6.75133 10.5427 6.80567 10.936 6.881 11.346ZM13.12 11.346H17.154C17.2627 10.9993 17.3477 10.622 17.409 10.214C17.4703 9.806 17.5007 9.40133 17.5 9C17.5 8.59867 17.4697 8.194 17.409 7.786C17.3477 7.37733 17.2627 7 17.154 6.654H13.119C13.195 7.064 13.2483 7.46367 13.279 7.853C13.311 8.24233 13.327 8.62467 13.327 9C13.327 9.37533 13.3113 9.75767 13.28 10.147C13.2487 10.5363 13.1953 10.9363 13.12 11.347M12.912 5.654H16.746C16.16 4.38467 15.3573 3.36467 14.338 2.594C13.318 1.82333 12.1297 1.33333 10.773 1.124C11.2397 1.73733 11.6593 2.43933 12.032 3.23C12.404 4.02 12.6973 4.828 12.912 5.654ZM7.119 5.654H11.881C11.617 4.71533 11.2913 3.86667 10.904 3.108C10.5173 2.34867 10.0493 1.64333 9.5 0.992C8.95133 1.64333 8.48333 2.34867 8.096 3.108C7.70933 3.86667 7.38367 4.71533 7.119 5.654ZM2.254 5.654H6.088C6.30267 4.828 6.596 4.02 6.968 3.23C7.34067 2.43933 7.76033 1.737 8.227 1.123C6.85767 1.333 5.66633 1.82633 4.653 2.603C3.63967 3.38033 2.83967 4.397 2.253 5.653" fill="#FBFBFB"/>
</svg>
