<svg width="20" height="18" viewBox="0 0 20 18" fill="none" xmlns="http://www.w3.org/2000/svg">
<path d="M18.9 0H1.1C0.808262 0 0.528473 0.104303 0.322183 0.289964C0.115893 0.475625 0 0.727436 0 0.99V17.01C0 17.2726 0.115893 17.5244 0.322183 17.71C0.528473 17.8957 0.808262 18 1.1 18H10.68V11.025H8.08V8.325H10.68V6.3C10.6261 5.82458 10.6885 5.34431 10.8627 4.89288C11.0369 4.44145 11.3188 4.02979 11.6885 3.68677C12.0582 3.34375 12.5068 3.07768 13.0028 2.90721C13.4989 2.73675 14.0304 2.66603 14.56 2.7C15.3383 2.69569 16.1163 2.73175 16.89 2.808V5.238H15.3C14.04 5.238 13.8 5.778 13.8 6.561V8.298H16.8L16.41 10.998H13.8V18H18.9C19.0445 18 19.1875 17.9744 19.321 17.9246C19.4544 17.8749 19.5757 17.802 19.6778 17.71C19.78 17.6181 19.861 17.509 19.9163 17.3889C19.9715 17.2687 20 17.14 20 17.01V0.99C20 0.859991 19.9715 0.731256 19.9163 0.611143C19.861 0.491031 19.78 0.381894 19.6778 0.289964C19.5757 0.198034 19.4544 0.125112 19.321 0.0753593C19.1875 0.0256072 19.0445 0 18.9 0Z" fill="#FBFBFB"/>
</svg>
