<svg width="20" height="21" viewBox="0 0 20 21" fill="none" xmlns="http://www.w3.org/2000/svg">
<path d="M0 10.2617C0 15.7847 4.477 20.2617 10 20.2617C15.523 20.2617 20 15.7847 20 10.2617C20 4.73872 15.523 0.261719 10 0.261719C4.477 0.261719 0 4.73872 0 10.2617ZM18 10.2617C18 12.3835 17.1571 14.4183 15.6569 15.9186C14.1566 17.4189 12.1217 18.2617 10 18.2617C7.87827 18.2617 5.84344 17.4189 4.34315 15.9186C2.84285 14.4183 2 12.3835 2 10.2617C2 8.13999 2.84285 6.10516 4.34315 4.60486C5.84344 3.10457 7.87827 2.26172 10 2.26172C12.1217 2.26172 14.1566 3.10457 15.6569 4.60486C17.1571 6.10516 18 8.13999 18 10.2617ZM16 10.2617C16.0012 11.0498 15.8466 11.8304 15.545 12.5586C15.2435 13.2868 14.801 13.9482 14.243 14.5047L10 10.2617V4.26172C11.5913 4.26172 13.1174 4.89386 14.2426 6.01908C15.3679 7.1443 16 8.67042 16 10.2617Z" fill="#474848"/>
</svg>
